<?xml version="1.0" encoding="utf-8"?>
<?xml-stylesheet type="text/xsl" href="rss1.xsl"?>
<rss version="2.0" xmlns:atom="http://www.w3.org/2005/Atom" xmlns:content="http://purl.org/rss/1.0/modules/content/" xmlns:dc="http://purl.org/dc/elements/1.1/" xmlns:media="http://search.yahoo.com/mrss/">
<channel>
 <title>Getty</title>
 <link>http://www.gettyimg.com/</link>
 <atom:link href="http://www.gettyimg.com/" rel="self" type="application/rss+xml" />

 
                <item>
                <title><![CDATA[【HD Live Performances】WEB-DL - Jennifer Lopez - Apple Music Live 2024 2160p WEB-DL DD+5.1 DoVi HDR10+ HEVC-FLUX]]></title>
                <link><![CDATA[https://sharemania.us/threads/jennifer-lopez-apple-music-live-2024-2160p-web-dl-dd-5-1-dovi-hdr10-hevc-flux.238310/]]></link>
                <description><![CDATA[<article>
<blockquote class="messageText SelectQuoteContainer ugc baseHtml">
<a href="https://imgbox.com/R5KqZtLI" target="_blank" class="externalLink" rel="nofollow"><img src="https://thumbs2.imgbox.com/d4/b1/R5KqZtLI_t.png" class="bbCodeImage LbImage" alt="[​IMG]" data-url="https://thumbs2.imgbox.com/d4/b1/R5KqZtLI_t.png"></a> <a href="https://imgbox.com/km7rfPcF" target="_blank" class="externalLink" rel="nofollow"><img src="https://thumbs2.imgbox.com/e9/7a/km7rfPcF_t.png" class="bbCodeImage LbImage" alt="[​IMG]" data-url="https://thumbs2.imgbox.com/e9/7a/km7rfPcF_t.png"></a> <a href="https://imgbox.com/TSuiY3YG" target="_blank" class="externalLink" rel="nofollow"><img src="https://thumbs2.imgbox.com/c9/e7/TSuiY3YG_t.png" class="bbCodeImage LbImage" alt="[​IMG]" data-url="https://thumbs2.imgbox.com/c9/e7/TSuiY3YG_t.png"></a><br>
<div class="ToggleTriggerAnchor bbCodeSpoilerContainer">
<button type="button" class="button bbCodeSpoilerButton ToggleTrigger Tooltip JsOnly" data-target="> .SpoilerTarget"><span>Spoiler: <span class="SpoilerTitle">Mediainfo</span></span></button>
<div class="SpoilerTarget bbCodeSpoilerText">
<div class="bbCodeBlock bbCodeCode">
<div class="type">Code:</div>
<pre>General
Unique ID                                : 183556874182578660996828803417397058957 (0x8A17C49ED5D872A81715E1234A24DD8D)
Complete name                            : Apple.Music.Live.Jennifer.Lopez.2024.2160p.ATVP.WEB-DL.DDP5.1.Atmos.DV.HDR.H.265-FLUX.mkv
Format                                   : Matroska
Format version                           : Version 4
File size                                : 12.3 GiB
Duration                                 : 1 h 10 min
Overall bit rate                         : 24.8 Mb/s
Writing application                      : mkvmerge v79.0 ('Funeral Pyres') 64-bit
Writing library                          : libebml v1.4.4 + libmatroska v1.7.1

Video
ID                                       : 1
Format                                   : HEVC
Format/Info                              : High Efficiency Video Coding
Format profile                           : Main 10@L5@High
HDR format                               : Dolby Vision, Version 1.0, dvhe.08.07, BL+RPU, HDR10 compatible / SMPTE ST 2094 App 4, Version 1, HDR10+ Profile B compatible
Codec ID                                 : V_MPEGH/ISO/HEVC
Duration                                 : 1 h 10 min
Bit rate                                 : 24.0 Mb/s
Width                                    : 3 840 pixels
Height                                   : 2 160 pixels
Display aspect ratio                     : 16:9
Frame rate mode                          : Constant
Frame rate                               : 23.976 (24000/1001) FPS
Color space                              : YUV
Chroma subsampling                       : 4:2:0 (Type 2)
Bit depth                                : 10 bits
Bits/(Pixel*Frame)                       : 0.121
Stream size                              : 11.9 GiB (97%)
Language                                 : English
Default                                  : Yes
Forced                                   : No
Color range                              : Limited
Color primaries                          : BT.2020
Transfer characteristics                 : PQ
Matrix coefficients                      : BT.2020 non-constant
Mastering display color primaries        : Display P3
Mastering display luminance              : min: 0.0050 cd/m2, max: 1000 cd/m2
Maximum Content Light Level              : 3269 cd/m2
Maximum Frame-Average Light Level        : 721 cd/m2

Audio
ID                                       : 2
Format                                   : E-AC-3 JOC
Format/Info                              : Enhanced AC-3 with Joint Object Coding
Commercial name                          : Dolby Digital Plus with Dolby Atmos
Codec ID                                 : A_EAC3
Duration                                 : 1 h 10 min
Bit rate mode                            : Constant
Bit rate                                 : 768 kb/s
Channel(s)                               : 6 channels
Channel layout                           : L R C LFE Ls Rs
Sampling rate                            : 48.0 kHz
Frame rate                               : 31.250 FPS (1536 SPF)
Compression mode                         : Lossy
Stream size                              : 389 MiB (3%)
Language                                 : English
Service kind                             : Complete Main
Default                                  : Yes
Forced                                   : No
Complexity index                         : 16
Number of dynamic objects                : 15
Bed channel count                        : 1 channel
Bed channel configuration                : LFE

Text #1
ID                                       : 3
Format                                   : UTF-8
Codec ID                                 : S_TEXT/UTF8
Codec ID/Info                            : UTF-8 Plain Text
Duration                                 : 1 h 9 min
Bit rate                                 : 24 b/s
Count of elements                        : 393
Stream size                              : 12.6 KiB (0%)
Language                                 : English
Default                                  : No
Forced                                   : No

Text #2
ID                                       : 4
Format                                   : UTF-8
Codec ID                                 : S_TEXT/UTF8
Codec ID/Info                            : UTF-8 Plain Text
Duration                                 : 1 h 10 min
Bit rate                                 : 31 b/s
Count of elements                        : 487
Stream size                              : 16.1 KiB (0%)
Title                                    : SDH
Language                                 : English
Default                                  : No
Forced                                   : No

Text #3
ID                                       : 5
Format                                   : UTF-8
Codec ID                                 : S_TEXT/UTF8
Codec ID/Info                            : UTF-8 Plain Text
Duration                                 : 1 h 10 min
Bit rate                                 : 20 b/s
Count of elements                        : 394
Stream size                              : 10.7 KiB (0%)
Language                                 : French
Default                                  : No
Forced                                   : No

Menu
00:00:00.000                             : en:Studio Logo / en:Skip
00:00:06.177                             : en:Scene 01</pre>
</div></div>
</div>
<div class="bbCodeBlock bbCodeVfcHH HiddenContent">
<div class="attribution type">Hidden Content:</div>
<blockquote>You must reply before you can see the hidden data contained here.</blockquote>
</div>
<div class="messageTextEndMarker">&nbsp;</div>
</blockquote>
</article>]]></description>
                <author><![CDATA[Plazik]]></author>
                </item>

                
                <item>
                <title><![CDATA[【Singles (lossless)】FLAC - Cheat Codes &amp; Two Friends - The Way It Is | Qobuz Hi-Res 24bit / 44.kHz]]></title>
                <link><![CDATA[https://sharemania.us/threads/cheat-codes-two-friends-the-way-it-is-qobuz-hi-res-24bit-44-khz.238309/]]></link>
                <description><![CDATA[<article>
<blockquote class="messageText SelectQuoteContainer ugc baseHtml">
Thanks / Obrigadão
<div class="messageTextEndMarker">&nbsp;</div>
</blockquote>
</article>]]></description>
                <author><![CDATA[Yennefer]]></author>
                </item>

                </channel></rss>